Coordinates
version=1
nRows=12
nColumns=24
inDegrees=yes

Units are S.I. units (second, meters, Newtons, ...)
Angles are in degrees.

endheader
time	pelvis_tilt	pelvis_list	pelvis_rotation	pelvis_tx	pelvis_ty	pelvis_tz	hip_flexion_r	hip_adduction_r	hip_rotation_r	knee_angle_r	ankle_angle_r	subtalar_angle_r	mtp_angle_r	hip_flexion_l	hip_adduction_l	hip_rotation_l	knee_angle_l	ankle_angle_l	subtalar_angle_l	mtp_angle_l	lumbar_extension	lumbar_bending	lumbar_rotation
      2.00000000	      5.15571792	      0.84559900	      3.65852449	      0.60570043	      1.01143635	      0.01194562	     19.81611810	     -1.73064011	     -4.22597546	    -24.82942493	      0.42170282	     -0.00000300	      0.00000000	    -12.80617869	      1.17731761	      4.56937438	    -41.44252638	      1.65557189	      0.00000905	      0.00000000	    -13.96331275	      1.62774159	     -8.75820812
      2.01700000	      5.03985562	      0.26192081	      3.49149145	      0.60647156	      1.01269124	      0.01515134	     19.05695135	     -0.85233116	     -4.32724438	    -25.50159395	      1.46506736	     -0.00000286	      0.00000000	     -9.15313034	      0.06318531	      2.87744671	    -48.07754643	     -2.96138582	      0.00000918	      0.00000000	    -13.77986696	      2.36097480	     -7.97993867
      2.03300000	      4.98683883	     -0.44661916	      3.64023747	      0.60751730	      1.01465154	      0.01839984	     17.86740139	      0.13595667	     -4.74683573	    -25.55478546	      2.58811782	     -0.00000262	      0.00000000	     -5.67932706	     -1.49020350	      1.50844340	    -53.81460053	     -7.05445342	      0.00000838	      0.00000000	    -13.49684782	      3.07665334	     -7.55057202
      2.05000000	      5.03830305	     -1.08707527	      3.45284078	      0.60748169	      1.01715592	      0.02186650	     16.43273116	      1.16653277	     -4.84192226	    -25.14445937	      3.54186388	     -0.00000251	      0.00000000	     -2.46831040	     -2.93241653	      0.19860498	    -58.74264350	     -9.43946769	      0.00000659	      0.00000000	    -13.54752589	      3.67005192	     -6.68844677
      2.06700000	      5.29789593	     -1.57813020	      3.40272390	      0.60734607	      1.02032933	      0.02521101	     14.68599703	      2.04264457	     -4.88994105	    -24.58368620	      4.47167078	     -0.00000254	      0.00000000	      0.41760443	     -4.14694528	     -0.57078502	    -62.98663895	     -9.71730239	      0.00000467	      0.00000000	    -13.76450004	      3.97053697	     -6.05648603
      2.08300000	      5.35637117	     -1.75576929	      3.11679260	      0.60670219	      1.02373601	      0.02801846	     12.99343823	      2.56474979	     -4.63190319	    -23.64761110	      5.16454560	     -0.00000235	      0.00000000	      3.28645496	     -4.79359392	     -1.26586103	    -66.32171146	     -8.25767657	      0.00000294	      0.00000000	    -13.92083545	      3.99196368	     -5.08496510
      2.10000000	      5.47116750	     -1.85163692	      2.86846490	      0.60648402	      1.02749599	      0.03078488	     11.05078687	      2.98822938	     -4.37610876	    -22.39577108	      5.68222285	     -0.00000204	      0.00000000	      5.88573595	     -5.15612876	     -1.61069951	    -68.70884932	     -6.02397018	      0.00000136	      0.00000000	    -14.02252182	      3.82368978	     -4.31032447
      2.11700000	      5.75233805	     -1.81651449	      2.38406032	      0.60565299	      1.03154923	      0.03380441	      8.75441182	      3.30443152	     -3.83841456	    -20.68018734	      5.91391426	     -0.00000176	      0.00000000	      8.12066138	     -5.33226123	     -2.12322097	    -70.12340368	     -3.96557924	      0.00000071	      0.00000000	    -14.26968948	      3.49515625	     -3.24784126
      2.13300000	      5.80350012	     -1.74958973	      1.97326614	      0.60459470	      1.03485703	      0.03641723	      6.76850733	      3.50604761	     -3.35692044	    -19.07442922	      6.15133820	     -0.00000158	      0.00000000	     10.46374857	     -5.21790804	     -2.24775582	    -70.69972325	     -2.32722061	      0.00000026	      0.00000000	    -14.40554201	      3.10767214	     -2.46852205
      2.15000000	      5.81230033	     -1.64596923	      1.49675097	      0.60354153	      1.03767959	      0.03868756	      4.84254195	      3.62176372	     -2.77429053	    -17.48027991	      6.37710416	     -0.00000142	      0.00000000	     12.62216175	     -4.97053541	     -2.36765278	    -70.40409598	     -1.18789945	      0.00000015	      0.00000000	    -14.35613656	      2.72452071	     -1.70946319
      2.16700000	      5.74088960	     -1.54570186	      0.88504664	      0.60163486	      1.03979562	      0.04096322	      3.13443617	      3.69911941	     -2.07680026	    -16.01659915	      6.54736944	     -0.00000117	      0.00000000	     14.71015830	     -4.74679411	     -2.63297357	    -69.37352878	     -0.38407148	      0.00000038	      0.00000000	    -14.36933602	      2.34828507	     -0.77461632
      2.18300000	      5.87158632	     -1.33248497	      0.46577601	      0.60017403	      1.04184466	      0.04258130	      1.24732285	      3.59208223	     -1.56987726	    -14.70617347	      6.80566914	     -0.00000105	      0.00000000	     16.29066576	     -4.31858506	     -2.74510132	    -67.46366654	      0.24489684	      0.00000028	      0.00000000	    -14.58702925	      1.90371856	     -0.24948125
